<?xml version="1.0" encoding="utf-8"?>
<svg xmlns="http://www.w3.org/2000/svg" xmlns:xlink="http://www.w3.org/1999/xlink" version= "1.1" width="512px" height="512px" viewBox="344 690 512 512">
<g id="layer1">
<g style="fill:rgb(254,254,254); fill-opacity:1.0; stroke-linejoin: miter">
<path d="M828.208,949.9118L826.1129,981.0544Q811.21765,1075.1697,738.94635,1131.597Q666.1749,1187.9789,567.5597,1177.3224Q473.44434,1162.4272,417.017,1090.1559Q398.93704,1066.7947,387.2323,1039.2458L377.39478,1010.9235Q369.28775,981.69104,369.1966,949.9118Q371.65765,852.38635,436.41724,787.6268Q501.17682,722.8672,598.7023,720.4061Q696.22766,722.8672,760.9873,787.6268Q825.74695,852.38635,828.208,949.9118"/>
</g>
</g>
<g id="layer2" opacity="0.0">
<g style="fill:rgb(0,0,0); fill-opacity:1.0; stroke-linejoin: miter">
<path d="M685.3823,871.1365L684.7733,870.4251Q678.57043,863.7949,672.6184,851.9131Q667.34485,842.5249,651.15845,796.5597Q647.81433,787.5446,637.83435,775.2683Q617.81323,756.06836,585.2879,766.3669Q568.3862,773.0114,558.7379,787.26794Q554.5734,793.8599,551.2286,801.015L532.6135,844.7649Q525.9763,858.9635,515.00134,869.9508Q512.83545,873.5285,495.94913,882.20215Q485.44147,886.79926,458.68134,894.39685Q451.1602,896.7758,444.1346,899.96295Q427.53052,908.3966,424.6911,914.27075Q405.96045,947.79297,428.26862,976.30365Q434.7103,982.92285,443.35397,987.86176L490.69318,1010.05927Q500.02097,1014.79987,507.694,1021.062Q513.5826,1025.1348,523.85223,1040.4019Q528.28064,1046.7833,546.6041,1081.4075Q550.48535,1088.1545,554.98254,1094.408Q567.3474,1109.8467,570.1256,1110.4612Q594.8759,1126.7358,627.16296,1115.9095Q638.0412,1111.9719,649.7918,1096.8951Q655.36633,1090.7,675.1653,1049.6927Q686.81586,1030.7887,690.6875,1028.4977Q692.7035,1025.5845,706.829,1016.5632Q712.40466,1012.89856,743.8468,999.0368Q758.972,991.2098,761.4473,988.84534Q773.34106,981.2072,779.7588,959.5163Q785.40063,932.61597,769.5648,914.04Q766.5384,909.8544,750.9152,902.2826L711.82104,888.07117Q699.63477,881.62976,685.3823,871.1365"/>
</g>
<g style="fill:rgb(254,254,254); fill-opacity:1.0; stroke-linejoin: miter">
</g>
<g style="fill:rgb(254,254,254); fill-opacity:1.0; stroke-linejoin: miter">
</g>
</g>
<g id="layer3">
<g style="fill:rgb(0,0,0); fill-opacity:1.0; stroke-linejoin: miter">
<path d="M685.3823,871.1365L684.7733,870.4251Q678.57043,863.7949,672.6184,851.9131Q667.34485,842.5249,651.15845,796.5597Q647.81433,787.5446,637.83435,775.2683Q617.81323,756.06836,585.2879,766.3669Q568.3862,773.0114,558.7379,787.26794Q554.5734,793.8599,551.2286,801.015L532.6135,844.7649Q525.9763,858.9635,515.00134,869.9508Q512.83545,873.5285,495.94913,882.20215Q485.44147,886.79926,458.68134,894.39685Q451.1602,896.7758,444.1346,899.96295Q427.53052,908.3966,424.6911,914.27075Q405.96045,947.79297,428.26862,976.30365Q434.7103,982.92285,443.35397,987.86176L490.69318,1010.05927Q500.02097,1014.79987,507.694,1021.062Q513.5826,1025.1348,523.85223,1040.4019Q528.28064,1046.7833,546.6041,1081.4075Q550.48535,1088.1545,554.98254,1094.408Q567.3474,1109.8467,570.1256,1110.4612Q594.8759,1126.7358,627.16296,1115.9095Q638.0412,1111.9719,649.7918,1096.8951Q655.36633,1090.7,675.1653,1049.6927Q686.81586,1030.7887,690.6875,1028.4977Q692.7035,1025.5845,706.829,1016.5632Q712.40466,1012.89856,743.8468,999.0368Q758.972,991.2098,761.4473,988.84534Q773.34106,981.2072,779.7588,959.5163Q785.40063,932.61597,769.5648,914.04Q766.5384,909.8544,750.9152,902.2826L711.82104,888.07117Q699.63477,881.62976,685.3823,871.1365"/>
</g>
<g style="fill:rgb(254,254,254); fill-opacity:1.0; stroke-linejoin: miter">
</g>
<g style="fill:rgb(254,254,254); fill-opacity:1.0; stroke-linejoin: miter">
</g>
<g style="fill:rgb(154,226,230); fill-opacity:1.0; stroke-linejoin: miter">
<path d="M606.47437,762.7715Q596.6432,762.7715,585.2879,766.3669Q579.79364,768.52686,575.06586,771.49115Q574.9839,777.25275,575.53613,783.55566Q579.87244,831.01465,614.9254,891.3873Q652.958,953.76636,697.94165,988.37494Q713.0634,999.95337,726.6079,1006.7565Q733.9446,1003.40234,743.8468,999.0368Q758.972,991.2098,761.4473,988.84534Q773.34106,981.2072,779.7588,959.5163Q785.40063,932.61597,769.5648,914.04Q766.5384,909.8544,750.9152,902.2826L711.82104,888.07117Q699.63477,881.62976,685.3823,871.1365L684.7733,870.4251Q678.57043,863.7949,672.6184,851.9131Q667.34485,842.5249,651.15845,796.5597Q647.81433,787.5446,637.83435,775.2683Q624.80304,762.7715,606.47437,762.7715 Z"/>
</g>
<g style="fill:rgb(242,233,203); fill-opacity:1.0; stroke-linejoin: miter">
<path d="M671.7821,850.3312Q672.22986,851.22144,672.6184,851.9131Q678.57043,863.7949,684.7733,870.4251L685.3823,871.1365Q686.40955,871.89276,687.4261,872.628Q679.78595,861.0312,671.7888,850.3312 Z"/>
</g>
<g style="fill:rgb(250,177,177); fill-opacity:1.0; stroke-linejoin: miter">
<path d="M492.312,883.6952Q481.30466,887.97375,458.68134,894.39685Q451.1602,896.7758,444.1346,899.96295Q427.53052,908.3966,424.6911,914.27075Q405.96045,947.79297,428.26862,976.30365Q434.7103,982.92285,443.35397,987.86176L490.69318,1010.05927Q500.02097,1014.79987,507.694,1021.062Q513.5826,1025.1348,523.85223,1040.4019Q528.28064,1046.7833,546.6041,1081.4075Q550.48535,1088.1545,554.98254,1094.408Q567.3474,1109.8467,570.1256,1110.4612Q584.98865,1120.2344,602.56964,1120.2344Q614.26495,1120.2344,627.16296,1115.9095Q638.0412,1111.9719,649.7918,1096.8951Q651.25433,1095.2698,653.69604,1091.2482L653.70905,1091.2491Q651.70654,1087.1378,649.12006,1083.058Q645.4616,1076.643,632.38727,1062.336Q590.35297,1022.9934,569.47186,1000.4164Q557.4749,987.42725,547.1843,973.6404Q514.06757,929.3174,492.31693,883.6952 Z"/>
</g>
<g style="fill:rgb(242,233,203); fill-opacity:1.0; stroke-linejoin: miter">
<path d="M584.14667,766.82764Q568.0581,773.4963,558.7379,787.26794Q554.5734,793.8599,551.2286,801.015L535.9083,837.0213Q536.1804,845.5212,536.562,855.1094Q537.90497,874.0014,541.1143,891.1647Q547.53296,925.4912,561.417,952.9027Q587.8634,1005.1822,651.318,1041.9332Q662.30066,1047.9241,674.35626,1051.3661Q674.75775,1050.5367,675.1653,1049.6927Q686.81586,1030.7887,690.6875,1028.4977Q692.7035,1025.5845,706.829,1016.5632Q711.6877,1013.36975,736.1885,1002.43304Q733.49316,994.4529,729.16064,986.05286Q722.5451,973.30054,709.8824,955.76984Q681.79834,922.41394,634.6192,875.01166Q617.41876,853.6514,611.16223,842.2802Q588.94824,804.0116,584.1526,766.82764 Z"/>
</g>
<g style="fill:rgb(242,199,181); fill-opacity:1.0; stroke-linejoin: miter">
<path d="M536.5974,835.41437L535.9083,837.0213Q535.9085,837.02716,535.9087,837.033L535.9068,837.0375L535.9068,837.03845Q535.90546,837.0353,535.9033,837.033L532.6135,844.7649L535.90375,837.0447L535.90906,837.04565L532.6135,844.7649L532.6135,844.76587L532.6135,844.7649Q525.9763,858.9635,515.00134,869.9508Q512.83545,873.5285,495.94913,882.20215Q491.24857,884.25867,483.29562,886.9156L485.14694,898.8581L491.49954,922.8573L500.58447,947.3789Q511.03555,972.16174,526.9513,997.98926Q544.96265,1025.7318,549.57074,1029.9944Q557.7392,1039.8591,566.74585,1048.6523Q584.75916,1066.2386,606.12524,1079.5388Q628.12506,1094.103,648.3378,1098.7222Q649.0631,1097.8301,649.7918,1096.8951Q651.25433,1095.2698,653.696,1091.2482L653.70905,1091.2501L653.6961,1091.2482L653.7074,1091.249Q660.5644,1079.9338,675.1653,1049.6927Q681.5058,1039.4047,685.54236,1034.0371Q675.52484,1019.51337,662.0847,1005.46814Q602.56757,949.3406,585.85547,929.8085Q563.86365,904.9208,549.09204,873.2021Q540.681,855.12665,536.5974,835.41437 Z"/>
</g>
<g style="fill:rgb(242,199,181); fill-opacity:1.0; stroke-linejoin: miter">
<path d="M535.9087,837.033L532.6135,844.7649L535.9033,837.033 Z"/>
</g>
<g style="fill:rgb(250,177,177); fill-opacity:1.0; stroke-linejoin: miter">
<path d="M495.0785,882.5764Q484.36624,887.10455,458.68134,894.39685Q451.1602,896.7758,444.1346,899.96295Q427.53052,908.3966,424.6911,914.27075Q405.96045,947.79297,428.26862,976.30365Q434.7103,982.92285,443.35397,987.86176L490.69318,1010.05927Q500.02097,1014.79987,507.694,1021.062Q513.5826,1025.1348,523.85223,1040.4019Q528.28064,1046.7833,546.6041,1081.4075Q550.48535,1088.1545,554.98254,1094.408Q567.3474,1109.8467,570.1256,1110.4612Q584.98865,1120.2344,602.56964,1120.2344Q614.26495,1120.2344,627.16296,1115.9095Q638.0412,1111.9719,649.7918,1096.8951Q651.2542,1095.2699,653.69543,1091.249L653.70905,1091.2501L653.69617,1091.2482L653.7074,1091.249Q655.3911,1088.4706,657.54175,1084.551Q658.5368,1082.7275,659.6394,1080.6567Q605.3473,1037.14,578.35297,1010.03357Q548.923,981.27954,527.72217,948.4293Q506.6207,915.554,495.08344,882.5764 Z"/>
</g>
</g>
</svg>